<mxfile host="app.diagrams.net" modified="2023-08-28T06:31:29.269Z" agent="Mozilla/5.0 (Windows NT 10.0; Win64; x64) AppleWebKit/537.36 (KHTML, like Gecko) Chrome/115.0.0.0 Safari/537.36" etag="mcFi4s3zKgo4ntmre7Gr" version="21.6.9" type="github">
  <diagram name="第 1 页" id="hVEV5Czx2lIB-9Fpdxu-">
    <mxGraphModel dx="989" dy="549" grid="1" gridSize="10" guides="1" tooltips="1" connect="1" arrows="1" fold="1" page="1" pageScale="1" pageWidth="827" pageHeight="1169" math="0" shadow="0">
      <root>
        <mxCell id="0" />
        <mxCell id="1" parent="0" />
        <mxCell id="KPbAlk-Ttri1jIt6WDEN-1" value="" style="rounded=0;whiteSpace=wrap;html=1;" vertex="1" parent="1">
          <mxGeometry x="60" y="100" width="320" height="220" as="geometry" />
        </mxCell>
        <mxCell id="KPbAlk-Ttri1jIt6WDEN-2" value="&lt;b&gt;&lt;font style=&quot;font-size: 14px;&quot;&gt;旧方案框架侧承载的业务逻辑&lt;/font&gt;&lt;/b&gt;" style="text;html=1;strokeColor=none;fillColor=none;align=center;verticalAlign=middle;whiteSpace=wrap;rounded=0;" vertex="1" parent="1">
          <mxGeometry x="60" y="60" width="190" height="30" as="geometry" />
        </mxCell>
        <mxCell id="KPbAlk-Ttri1jIt6WDEN-3" value="1、根据业务方所传信息解析判断是公有投屏还是自由投屏" style="text;html=1;strokeColor=none;fillColor=none;align=left;verticalAlign=middle;whiteSpace=wrap;rounded=0;" vertex="1" parent="1">
          <mxGeometry x="70" y="110" width="300" height="30" as="geometry" />
        </mxCell>
        <mxCell id="KPbAlk-Ttri1jIt6WDEN-5" value="2、根据业务方所传信息解析后创建虚拟屏" style="text;html=1;strokeColor=none;fillColor=none;align=left;verticalAlign=middle;whiteSpace=wrap;rounded=0;" vertex="1" parent="1">
          <mxGeometry x="70" y="149" width="300" height="30" as="geometry" />
        </mxCell>
        <mxCell id="KPbAlk-Ttri1jIt6WDEN-6" value="3、进入后台投屏依据不同投屏模式和场景，选择不同移栈策略" style="text;html=1;strokeColor=none;fillColor=none;align=left;verticalAlign=middle;whiteSpace=wrap;rounded=0;" vertex="1" parent="1">
          <mxGeometry x="70" y="190" width="300" height="30" as="geometry" />
        </mxCell>
        <mxCell id="KPbAlk-Ttri1jIt6WDEN-7" value="4、退出后台投屏依据不同投屏模式和场景，选择不同移栈策略" style="text;html=1;strokeColor=none;fillColor=none;align=left;verticalAlign=middle;whiteSpace=wrap;rounded=0;" vertex="1" parent="1">
          <mxGeometry x="70" y="230" width="300" height="30" as="geometry" />
        </mxCell>
        <mxCell id="KPbAlk-Ttri1jIt6WDEN-8" value="5、依据要投屏任务栈所处的窗口状态信息（如分屏、小窗等），决定退出投屏时任务栈的处理方式" style="text;html=1;strokeColor=none;fillColor=none;align=left;verticalAlign=middle;whiteSpace=wrap;rounded=0;" vertex="1" parent="1">
          <mxGeometry x="70" y="270" width="300" height="30" as="geometry" />
        </mxCell>
        <mxCell id="KPbAlk-Ttri1jIt6WDEN-9" value="" style="rounded=0;whiteSpace=wrap;html=1;" vertex="1" parent="1">
          <mxGeometry x="469" y="179" width="320" height="67" as="geometry" />
        </mxCell>
        <mxCell id="KPbAlk-Ttri1jIt6WDEN-10" value="&lt;b&gt;&lt;font style=&quot;font-size: 14px;&quot;&gt;新方案框架侧承载的业务逻辑&lt;/font&gt;&lt;/b&gt;" style="text;html=1;strokeColor=none;fillColor=none;align=center;verticalAlign=middle;whiteSpace=wrap;rounded=0;" vertex="1" parent="1">
          <mxGeometry x="469" y="60" width="190" height="30" as="geometry" />
        </mxCell>
        <mxCell id="KPbAlk-Ttri1jIt6WDEN-15" value="1、依据要投屏任务栈所处的窗口状态信息（如分屏、小窗等），决定退出投屏时任务栈的处理方式" style="text;html=1;strokeColor=none;fillColor=none;align=left;verticalAlign=middle;whiteSpace=wrap;rounded=0;" vertex="1" parent="1">
          <mxGeometry x="479" y="200" width="300" height="30" as="geometry" />
        </mxCell>
        <mxCell id="KPbAlk-Ttri1jIt6WDEN-17" value="" style="shape=flexArrow;endArrow=classic;html=1;rounded=0;" edge="1" parent="1">
          <mxGeometry width="50" height="50" relative="1" as="geometry">
            <mxPoint x="390" y="218" as="sourcePoint" />
            <mxPoint x="460" y="218" as="targetPoint" />
          </mxGeometry>
        </mxCell>
      </root>
    </mxGraphModel>
  </diagram>
</mxfile>
